  0
SECTION
  2
HEADER
  9
$ACADVER
  1
AC1009
  9
$DWGCODEPAGE
  3
ansi_1252
  9
$INSBASE
 10
0.0
 20
0.0
 30
0.0
  9
$EXTMIN
 10
0.0
 20
0.0
 30
0.0
  9
$EXTMAX
 10
215.9
 20
279.4
 30
0.0
  9
$LIMMIN
 10
0.0
 20
0.0
  9
$LIMMAX
 10
215.9
 20
279.4
  9
$ORTHOMODE
 70
     0
  9
$REGENMODE
 70
     1
  9
$FILLMODE
 70
     1
  9
$QTEXTMODE
 70
     0
  9
$MIRRTEXT
 70
     1
  9
$DRAGMODE
 70
     2
  9
$LTSCALE
 40
18.212741
  9
$OSMODE
 70
    37
  9
$ATTMODE
 70
     1
  9
$TEXTSIZE
 40
0.2
  9
$TRACEWID
 40
0.05
  9
$TEXTSTYLE
  7
STANDARD
  9
$CLAYER
  8
0
  9
$CELTYPE
  6
BYLAYER
  9
$CECOLOR
 62
   256
  9
$DIMSCALE
 40
1.0
  9
$DIMASZ
 40
2.5
  9
$DIMEXO
 40
1.0
  9
$DIMDLI
 40
12.583348
  9
$DIMRND
 40
0.0
  9
$DIMDLE
 40
0.0
  9
$DIMEXE
 40
1.0
  9
$DIMTP
 40
0.01
  9
$DIMTM
 40
0.01
  9
$DIMTXT
 40
3.5
  9
$DIMCEN
 40
2.980267
  9
$DIMTSZ
 40
0.0
  9
$DIMTOL
 70
     1
  9
$DIMLIM
 70
     0
  9
$DIMTIH
 70
     1
  9
$DIMTOH
 70
     1
  9
$DIMSE1
 70
     0
  9
$DIMSE2
 70
     0
  9
$DIMTAD
 70
     0
  9
$DIMZIN
 70
     0
  9
$DIMBLK
  1
FILLED
  9
$DIMASO
 70
     1
  9
$DIMSHO
 70
     1
  9
$DIMPOST
  1

  9
$DIMAPOST
  1

  9
$DIMALT
 70
     0
  9
$DIMALTD
 70
     2
  9
$DIMALTF
 40
0.03937
  9
$DIMLFAC
 40
1.0
  9
$DIMTOFL
 70
     0
  9
$DIMTVP
 40
0.0
  9
$DIMTIX
 70
     0
  9
$DIMSOXD
 70
     0
  9
$DIMSAH
 70
     0
  9
$DIMBLK1
  1

  9
$DIMBLK2
  1

  9
$DIMSTYLE
  2
STANDARD
  9
$DIMCLRD
 70
     0
  9
$DIMCLRE
 70
     0
  9
$DIMCLRT
 70
     0
  9
$DIMTFAC
 40
1.0
  9
$DIMGAP
 40
0.625
  9
$LUNITS
 70
     2
  9
$LUPREC
 70
     4
  9
$SKETCHINC
 40
0.1
  9
$FILLETRAD
 40
0.5
  9
$AUNITS
 70
     0
  9
$AUPREC
 70
     0
  9
$MENU
  1
.
  9
$ELEVATION
 40
0.0
  9
$PELEVATION
 40
0.0
  9
$THICKNESS
 40
0.0
  9
$LIMCHECK
 70
     0
  9
$CHAMFERA
 40
0.0
  9
$CHAMFERB
 40
0.0
  9
$SKPOLY
 70
     0
  9
$TDCREATE
 40
2447892.708333333
  9
$TDUPDATE
 40
2460773.588253692
  9
$TDINDWG
 40
0.0
  9
$TDUSRTIMER
 40
0.0
  9
$USRTIMER
 70
     1
  9
$ANGBASE
 50
0.0
  9
$ANGDIR
 70
     0
  9
$PDMODE
 70
     3
  9
$PDSIZE
 40
0.3125
  9
$PLINEWID
 40
0.0
  9
$COORDS
 70
     1
  9
$SPLFRAME
 70
     0
  9
$SPLINETYPE
 70
     6
  9
$SPLINESEGS
 70
     8
  9
$ATTDIA
 70
     0
  9
$ATTREQ
 70
     1
  9
$HANDLING
 70
     1
  9
$HANDSEED
  5
3A4
  9
$SURFTAB1
 70
     6
  9
$SURFTAB2
 70
     6
  9
$SURFTYPE
 70
     6
  9
$SURFU
 70
     6
  9
$SURFV
 70
     6
  9
$UCSNAME
  2

  9
$UCSORG
 10
0.0
 20
0.0
 30
0.0
  9
$UCSXDIR
 10
1.0
 20
0.0
 30
0.0
  9
$UCSYDIR
 10
0.0
 20
1.0
 30
0.0
  9
$PUCSNAME
  2

  9
$PUCSORG
 10
0.0
 20
0.0
 30
0.0
  9
$PUCSXDIR
 10
1.0
 20
0.0
 30
0.0
  9
$PUCSYDIR
 10
0.0
 20
1.0
 30
0.0
  9
$USERI1
 70
     0
  9
$USERI2
 70
     0
  9
$USERI3
 70
     0
  9
$USERI4
 70
     0
  9
$USERI5
 70
     0
  9
$USERR1
 40
0.0
  9
$USERR2
 40
0.0
  9
$USERR3
 40
0.0
  9
$USERR4
 40
0.0
  9
$USERR5
 40
0.0
  9
$WORLDVIEW
 70
     1
  9
$SHADEDGE
 70
     3
  9
$SHADEDIF
 70
    70
  9
$TILEMODE
 70
     1
  9
$MAXACTVP
 70
    64
  9
$PLIMCHECK
 70
     0
  9
$PEXTMIN
 10
1.000000E+20
 20
1.000000E+20
 30
1.000000E+20
  9
$PEXTMAX
 10
-1.000000E+20
 20
-1.000000E+20
 30
-1.000000E+20
  9
$PLIMMIN
 10
0.0
 20
0.0
  9
$PLIMMAX
 10
12.0
 20
9.0
  9
$UNITMODE
 70
     0
  9
$VISRETAIN
 70
     1
  9
$PLINEGEN
 70
     0
  9
$PSLTSCALE
 70
     0
  0
ENDSEC
  0
SECTION
  2
TABLES
  0
TABLE
  2
VPORT
 70
     1
  0
VPORT
  2
*ACTIVE
 70
     0
 10
0.0
 20
0.0
 11
1.0
 21
1.0
 12
126.032995
 22
177.131799
 13
0.0
 23
0.0
 14
1.0
 24
1.0
 15
0.0
 25
0.0
 16
0.0
 26
0.0
 36
1.0
 17
0.0
 27
0.0
 37
0.0
 40
284.988
 41
2.040609
 42
50.0
 43
0.0
 44
0.0
 50
0.0
 51
0.0
 71
    16
 72
   100
 73
     1
 74
     1
 75
     0
 76
     0
 77
     0
 78
     0
  0
ENDTAB
  0
TABLE
  2
LTYPE
 70
     6
  0
LTYPE
  2
CONTINUOUS
 70
     0
  3
Solid line
 72
    65
 73
     0
 40
0.0
  0
ENDTAB
  0
TABLE
  2
LAYER
 70
    21
  0
LAYER
  2
0
 70
     0
 62
     7
  6
CONTINUOUS
  0
LAYER
  2
05_CURVES
 70
     0
 62
     7
  6
CONTINUOUS
  0
ENDTAB
  0
TABLE
  2
STYLE
 70
     2
  0
STYLE
  2
STANDARD
 70
     0
 40
0.0
 41
1.0
 50
0.0
 71
     0
 42
0.2
  3
isonormlt-regular.ttf
  4

  0
ENDTAB
  0
TABLE
  2
VIEW
 70
     0
  0
ENDTAB
  0
TABLE
  2
UCS
 70
     0
  0
ENDTAB
  0
TABLE
  2
APPID
 70
     6
  0
APPID
  2
ACAD
 70
     0
  0
APPID
  2
MCS_DIM1
 70
     0
  0
APPID
  2
MCSXDATA5
 70
     0
  0
APPID
  2
MCS_DOCUMENT_ID
 70
     0
  0
APPID
  2
MCS_PARAMS_DATA
 70
     0
  0
APPID
  2
MC_VERSION_DATA
 70
     0
  0
ENDTAB
  0
TABLE
  2
DIMSTYLE
 70
     1
  0
DIMSTYLE
  2
STANDARD
 70
     0
  3

  4

  5
FILLED
  6
FILLED
  7
FILLED
 40
1.0
 41
2.5
 42
1.0
 43
0.38
 44
1.0
 45
0.0
 46
0.0
 47
0.01
 48
0.01
140
3.5
141
0.09
142
0.0
143
25.4
144
1.0
145
0.0
146
1.0
147
0.625
 71
     1
 72
     0
 73
     0
 74
     0
 75
     0
 76
     0
 77
     1
 78
     8
170
     0
171
     1
172
     0
173
     0
174
     0
175
     0
176
     0
177
     0
178
     0
  0
ENDTAB
  0
ENDSEC
  0
SECTION
  2
BLOCKS
  0
BLOCK
  8
0
  2
$MODEL_SPACE
 70
     0
 10
0.0
 20
0.0
 30
0.0
  3
$MODEL_SPACE
  1

  0
ENDBLK
  5
21
  8
0
  0
BLOCK
 67
     1
  8
0
  2
$PAPER_SPACE
 70
     0
 10
0.0
 20
0.0
 30
0.0
  3
$PAPER_SPACE
  1

  0
ENDBLK
  5
1D
 67
     1
  8
0
  0
BLOCK
  8
0
  2
_FILLED
 70
     0
 10
0.0
 20
0.0
 30
0.0
  3
_FILLED
  1

  0
SOLID
  5
213
  8
0
  6
BYBLOCK
 62
     0
 10
0.0
 20
0.0
 30
0.0
 11
-1.0
 21
0.25
 31
0.0
 12
-1.0
 22
-0.25
 32
0.0
 13
-1.0
 23
-0.25
 33
0.0
  0
ENDBLK
  5
214
  8
0
  6
BYBLOCK
 62
     0
  0
ENDSEC
  0
SECTION
  2
ENTITIES
  0
LINE
  5
219
  8
0
  6
CONTINUOUS
 62
     7
 10
56.335013
 20
137.972739
 30
0.0
 11
119.135013
 21
137.972739
 31
0.0
  0
LINE
  5
21A
  8
05_CURVES
  6
CONTINUOUS
 62
     7
 10
56.335013
 20
138.972739
 30
0.0
 11
119.135013
 21
138.972739
 31
0.0
  0
LINE
  5
21B
  8
0
  6
CONTINUOUS
 62
     7
 10
53.935013
 20
213.172739
 30
0.0
 11
53.935013
 21
140.372739
 31
0.0
  0
LINE
  5
21C
  8
05_CURVES
  6
CONTINUOUS
 62
     7
 10
54.935013
 20
213.172739
 30
0.0
 11
54.935013
 21
140.372739
 31
0.0
  0
LINE
  5
21D
  8
0
  6
CONTINUOUS
 62
     7
 10
64.297513
 20
208.666356
 30
0.0
 11
64.235013
 21
208.570611
 31
0.0
  0
LINE
  5
21E
  8
0
  6
CONTINUOUS
 62
     7
 10
64.360013
 20
208.474867
 30
0.0
 11
64.422513
 21
208.570611
 31
0.0
  0
LINE
  5
21F
  8
0
  6
CONTINUOUS
 62
     7
 10
64.985013
 20
208.091888
 30
0.0
 11
64.922513
 21
207.996143
 31
0.0
  0
LINE
  5
220
  8
0
  6
CONTINUOUS
 62
     7
 10
65.047513
 20
207.900399
 30
0.0
 11
65.110013
 21
207.996143
 31
0.0
  0
LINE
  5
221
  8
0
  6
CONTINUOUS
 62
     7
 10
65.578763
 20
208.442952
 30
0.0
 11
65.641263
 21
208.538696
 31
0.0
  0
LINE
  5
222
  8
0
  6
CONTINUOUS
 62
     7
 10
66.266263
 20
207.868484
 30
0.0
 11
66.391263
 21
208.028058
 31
0.0
  0
LINE
  5
223
  8
0
  6
CONTINUOUS
 62
     7
 10
64.360013
 20
208.730186
 30
0.0
 11
64.297513
 21
208.666356
 31
0.0
  0
LINE
  5
224
  8
0
  6
CONTINUOUS
 62
     7
 10
64.422513
 20
208.570611
 30
0.0
 11
64.485013
 21
208.634441
 31
0.0
  0
LINE
  5
225
  8
0
  6
CONTINUOUS
 62
     7
 10
64.922513
 20
207.996143
 30
0.0
 11
64.860013
 21
207.932313
 31
0.0
  0
LINE
  5
226
  8
0
  6
CONTINUOUS
 62
     7
 10
65.672513
 20
208.730186
 30
0.0
 11
65.610013
 21
208.666356
 31
0.0
  0
LINE
  5
227
  8
0
  6
CONTINUOUS
 62
     7
 10
64.985013
 20
207.836569
 30
0.0
 11
65.047513
 21
207.900399
 31
0.0
  0
LINE
  5
228
  8
0
  6
CONTINUOUS
 62
     7
 10
65.641263
 20
208.538696
 30
0.0
 11
65.735013
 21
208.602526
 31
0.0
  0
LINE
  5
229
  8
0
  6
CONTINUOUS
 62
     7
 10
66.203763
 20
208.028058
 30
0.0
 11
66.110013
 21
207.964228
 31
0.0
  0
LINE
  5
22A
  8
0
  6
CONTINUOUS
 62
     7
 10
66.172513
 20
207.804654
 30
0.0
 11
66.266263
 21
207.868484
 31
0.0
  0
LINE
  5
22B
  8
0
  6
CONTINUOUS
 62
     7
 10
64.422513
 20
208.762101
 30
0.0
 11
64.360013
 21
208.730186
 31
0.0
  0
LINE
  5
22C
  8
0
  6
CONTINUOUS
 62
     7
 10
65.735013
 20
208.762101
 30
0.0
 11
65.672513
 21
208.730186
 31
0.0
  0
LINE
  5
22D
  8
0
  6
CONTINUOUS
 62
     7
 10
64.922513
 20
207.804654
 30
0.0
 11
64.985013
 21
207.836569
 31
0.0
  0
LINE
  5
22E
  8
0
  6
CONTINUOUS
 62
     7
 10
64.203763
 20
208.474867
 30
0.0
 11
64.172513
 21
208.347207
 31
0.0
  0
LINE
  5
22F
  8
0
  6
CONTINUOUS
 62
     7
 10
64.328763
 20
208.347207
 30
0.0
 11
64.360013
 21
208.474867
 31
0.0
  0
LINE
  5
230
  8
0
  6
CONTINUOUS
 62
     7
 10
65.016263
 20
208.219548
 30
0.0
 11
64.985013
 21
208.091888
 31
0.0
  0
LINE
  5
231
  8
0
  6
CONTINUOUS
 62
     7
 10
65.110013
 20
207.996143
 30
0.0
 11
65.172513
 21
208.219548
 31
0.0
  0
LINE
  5
232
  8
0
  6
CONTINUOUS
 62
     7
 10
64.235013
 20
208.570611
 30
0.0
 11
64.203763
 21
208.474867
 31
0.0
  0
LINE
  5
233
  8
0
  6
CONTINUOUS
 62
     7
 10
66.266263
 20
208.187633
 30
0.0
 11
66.235013
 21
208.091888
 31
0.0
  0
LINE
  5
234
  8
0
  6
CONTINUOUS
 62
     7
 10
65.610013
 20
208.666356
 30
0.0
 11
65.578763
 21
208.602526
 31
0.0
  0
LINE
  5
235
  8
0
  6
CONTINUOUS
 62
     7
 10
66.235013
 20
208.091888
 30
0.0
 11
66.203763
 21
208.028058
 31
0.0
  0
LINE
  5
236
  8
0
  6
CONTINUOUS
 62
     7
 10
68.766263
 20
208.538696
 30
0.0
 11
68.797513
 21
208.570611
 31
0.0
  0
LINE
  5
237
  8
0
  6
CONTINUOUS
 62
     7
 10
72.172513
 20
208.730186
 30
0.0
 11
72.110013
 21
208.666356
 31
0.0
  0
LINE
  5
238
  8
0
  6
CONTINUOUS
 62
     7
 10
71.453763
 20
207.868484
 30
0.0
 11
71.578763
 21
207.996143
 31
0.0
  0
LINE
  5
239
  8
0
  6
CONTINUOUS
 62
     7
 10
68.485013
 20
208.794016
 30
0.0
 11
68.172513
 21
208.570611
 31
0.0
  0
LINE
  5
23A
  8
0
  6
CONTINUOUS
 62
     7
 10
68.203763
 20
208.538696
 30
0.0
 11
68.485013
 21
208.730186
 31
0.0
  0
LINE
  5
23B
  8
0
  6
CONTINUOUS
 62
     7
 10
71.391263
 20
208.059973
 30
0.0
 11
71.297513
 21
207.996143
 31
0.0
  0
LINE
  5
23C
  8
0
  6
CONTINUOUS
 62
     7
 10
72.141263
 20
208.538696
 30
0.0
 11
72.235013
 21
208.602526
 31
0.0
  0
LINE
  5
23D
  8
0
  6
CONTINUOUS
 62
     7
 10
72.703763
 20
208.028058
 30
0.0
 11
72.610013
 21
207.964228
 31
0.0
  0
LINE
  5
23E
  8
0
  6
CONTINUOUS
 62
     7
 10
72.672513
 20
207.804654
 30
0.0
 11
72.766263
 21
207.868484
 31
0.0
  0
LINE
  5
23F
  8
0
  6
CONTINUOUS
 62
     7
 10
72.235013
 20
208.762101
 30
0.0
 11
72.172513
 21
208.730186
 31
0.0
  0
LINE
  5
240
  8
0
  6
CONTINUOUS
 62
     7
 10
71.328763
 20
207.804654
 30
0.0
 11
71.453763
 21
207.868484
 31
0.0
  0
LINE
  5
241
  8
0
  6
CONTINUOUS
 62
     7
 10
62.735013
 20
209.272739
 30
0.0
 11
62.735013
 21
209.113165
 31
0.0
  0
LINE
  5
242
  8
0
  6
CONTINUOUS
 62
     7
 10
63.235013
 20
209.113165
 30
0.0
 11
63.235013
 21
207.772739
 31
0.0
  0
LINE
  5
243
  8
0
  6
CONTINUOUS
 62
     7
 10
63.422513
 20
207.772739
 30
0.0
 11
63.422513
 21
209.113165
 31
0.0
  0
LINE
  5
244
  8
0
  6
CONTINUOUS
 62
     7
 10
63.922513
 20
209.113165
 30
0.0
 11
63.922513
 21
209.272739
 31
0.0
  0
LINE
  5
245
  8
0
  6
CONTINUOUS
 62
     7
 10
64.172513
 20
208.347207
 30
0.0
 11
64.172513
 21
208.219548
 31
0.0
  0
LINE
  5
246
  8
0
  6
CONTINUOUS
 62
     7
 10
64.328763
 20
208.219548
 30
0.0
 11
64.328763
 21
208.347207
 31
0.0
  0
LINE
  5
247
  8
0
  6
CONTINUOUS
 62
     7
 10
66.391263
 20
208.028058
 30
0.0
 11
66.422513
 21
208.155718
 31
0.0
  0
LINE
  5
248
  8
0
  6
CONTINUOUS
 62
     7
 10
71.578763
 20
207.996143
 30
0.0
 11
71.641263
 21
208.123803
 31
0.0
  0
LINE
  5
249
  8
0
  6
CONTINUOUS
 62
     7
 10
72.110013
 20
208.666356
 30
0.0
 11
72.078763
 21
208.602526
 31
0.0
  0
LINE
  5
24A
  8
0
  6
CONTINUOUS
 62
     7
 10
72.735013
 20
208.091888
 30
0.0
 11
72.703763
 21
208.028058
 31
0.0
  0
LINE
  5
24B
  8
0
  6
CONTINUOUS
 62
     7
 10
71.453763
 20
208.155718
 30
0.0
 11
71.391263
 21
208.059973
 31
0.0
  0
LINE
  5
24C
  8
0
  6
CONTINUOUS
 62
     7
 10
72.078763
 20
208.442952
 30
0.0
 11
72.141263
 21
208.538696
 31
0.0
  0
LINE
  5
24D
  8
0
  6
CONTINUOUS
 62
     7
 10
72.766263
 20
207.868484
 30
0.0
 11
72.891263
 21
208.028058
 31
0.0
  0
LINE
  5
24E
  8
0
  6
CONTINUOUS
 62
     7
 10
65.016263
 20
208.347207
 30
0.0
 11
65.016263
 21
208.219548
 31
0.0
  0
LINE
  5
24F
  8
0
  6
CONTINUOUS
 62
     7
 10
65.172513
 20
208.219548
 30
0.0
 11
65.172513
 21
208.347207
 31
0.0
  0
LINE
  5
250
  8
0
  6
CONTINUOUS
 62
     7
 10
65.422513
 20
208.794016
 30
0.0
 11
65.422513
 21
207.262101
 31
0.0
  0
LINE
  5
251
  8
0
  6
CONTINUOUS
 62
     7
 10
65.578763
 20
207.262101
 30
0.0
 11
65.578763
 21
207.964228
 31
0.0
  0
LINE
  5
252
  8
0
  6
CONTINUOUS
 62
     7
 10
65.578763
 20
208.123803
 30
0.0
 11
65.578763
 21
208.442952
 31
0.0
  0
LINE
  5
253
  8
0
  6
CONTINUOUS
 62
     7
 10
65.578763
 20
208.602526
 30
0.0
 11
65.578763
 21
208.794016
 31
0.0
  0
LINE
  5
254
  8
0
  6
CONTINUOUS
 62
     7
 10
66.266263
 20
208.379122
 30
0.0
 11
66.266263
 21
208.187633
 31
0.0
  0
LINE
  5
255
  8
0
  6
CONTINUOUS
 62
     7
 10
66.422513
 20
208.155718
 30
0.0
 11
66.422513
 21
208.411037
 31
0.0
  0
LINE
  5
256
  8
0
  6
CONTINUOUS
 62
     7
 10
71.641263
 20
208.123803
 30
0.0
 11
71.672513
 21
208.283377
 31
0.0
  0
LINE
  5
257
  8
0
  6
CONTINUOUS
 62
     7
 10
71.485013
 20
208.283377
 30
0.0
 11
71.453763
 21
208.155718
 31
0.0
  0
LINE
  5
258
  8
0
  6
CONTINUOUS
 62
     7
 10
72.891263
 20
208.028058
 30
0.0
 11
72.922513
 21
208.155718
 31
0.0
  0
LINE
  5
259
  8
0
  6
CONTINUOUS
 62
     7
 10
72.766263
 20
208.187633
 30
0.0
 11
72.735013
 21
208.091888
 31
0.0
  0
LINE
  5
25A
  8
0
  6
CONTINUOUS
 62
     7
 10
70.547513
 20
209.272739
 30
0.0
 11
70.547513
 21
208.283377
 31
0.0
  0
LINE
  5
25B
  8
0
  6
CONTINUOUS
 62
     7
 10
70.735013
 20
208.283377
 30
0.0
 11
70.735013
 21
209.272739
 31
0.0
  0
LINE
  5
25C
  8
0
  6
CONTINUOUS
 62
     7
 10
71.485013
 20
209.272739
 30
0.0
 11
71.485013
 21
208.283377
 31
0.0
  0
LINE
  5
25D
  8
0
  6
CONTINUOUS
 62
     7
 10
71.672513
 20
208.283377
 30
0.0
 11
71.672513
 21
209.272739
 31
0.0
  0
LINE
  5
25E
  8
0
  6
CONTINUOUS
 62
     7
 10
71.922513
 20
208.794016
 30
0.0
 11
71.922513
 21
207.262101
 31
0.0
  0
LINE
  5
25F
  8
0
  6
CONTINUOUS
 62
     7
 10
72.078763
 20
207.262101
 30
0.0
 11
72.078763
 21
207.964228
 31
0.0
  0
LINE
  5
260
  8
0
  6
CONTINUOUS
 62
     7
 10
72.078763
 20
208.123803
 30
0.0
 11
72.078763
 21
208.442952
 31
0.0
  0
LINE
  5
261
  8
0
  6
CONTINUOUS
 62
     7
 10
72.078763
 20
208.602526
 30
0.0
 11
72.078763
 21
208.794016
 31
0.0
  0
LINE
  5
262
  8
0
  6
CONTINUOUS
 62
     7
 10
64.172513
 20
208.219548
 30
0.0
 11
64.235013
 21
207.996143
 31
0.0
  0
LINE
  5
263
  8
0
  6
CONTINUOUS
 62
     7
 10
64.360013
 20
208.091888
 30
0.0
 11
64.328763
 21
208.219548
 31
0.0
  0
LINE
  5
264
  8
0
  6
CONTINUOUS
 62
     7
 10
64.985013
 20
208.474867
 30
0.0
 11
65.016263
 21
208.347207
 31
0.0
  0
LINE
  5
265
  8
0
  6
CONTINUOUS
 62
     7
 10
65.172513
 20
208.347207
 30
0.0
 11
65.141263
 21
208.474867
 31
0.0
  0
LINE
  5
266
  8
0
  6
CONTINUOUS
 62
     7
 10
72.766263
 20
208.379122
 30
0.0
 11
72.766263
 21
208.187633
 31
0.0
  0
LINE
  5
267
  8
0
  6
CONTINUOUS
 62
     7
 10
72.922513
 20
208.155718
 30
0.0
 11
72.922513
 21
208.411037
 31
0.0
  0
LINE
  5
268
  8
0
  6
CONTINUOUS
 62
     7
 10
65.141263
 20
208.474867
 30
0.0
 11
65.110013
 21
208.570611
 31
0.0
  0
LINE
  5
269
  8
0
  6
CONTINUOUS
 62
     7
 10
66.235013
 20
208.474867
 30
0.0
 11
66.266263
 21
208.379122
 31
0.0
  0
LINE
  5
26A
  8
0
  6
CONTINUOUS
 62
     7
 10
66.422513
 20
208.411037
 30
0.0
 11
66.391263
 21
208.538696
 31
0.0
  0
LINE
  5
26B
  8
0
  6
CONTINUOUS
 62
     7
 10
70.547513
 20
208.283377
 30
0.0
 11
70.578763
 21
208.123803
 31
0.0
  0
LINE
  5
26C
  8
0
  6
CONTINUOUS
 62
     7
 10
65.578763
 20
207.964228
 30
0.0
 11
65.610013
 21
207.900399
 31
0.0
  0
LINE
  5
26D
  8
0
  6
CONTINUOUS
 62
     7
 10
66.391263
 20
208.538696
 30
0.0
 11
66.360013
 21
208.602526
 31
0.0
  0
LINE
  5
26E
  8
0
  6
CONTINUOUS
 62
     7
 10
70.766263
 20
208.155718
 30
0.0
 11
70.735013
 21
208.283377
 31
0.0
  0
LINE
  5
26F
  8
0
  6
CONTINUOUS
 62
     7
 10
72.922513
 20
208.411037
 30
0.0
 11
72.891263
 21
208.538696
 31
0.0
  0
LINE
  5
270
  8
05_CURVES
  6
CONTINUOUS
 62
     7
 10
81.235013
 20
207.272739
 30
0.0
 11
81.235013
 21
232.272739
 31
0.0
  0
LINE
  5
271
  8
0
  6
CONTINUOUS
 62
     7
 10
64.235013
 20
207.996143
 30
0.0
 11
64.297513
 21
207.900399
 31
0.0
  0
LINE
  5
272
  8
0
  6
CONTINUOUS
 62
     7
 10
64.422513
 20
207.996143
 30
0.0
 11
64.360013
 21
208.091888
 31
0.0
  0
LINE
  5
273
  8
0
  6
CONTINUOUS
 62
     7
 10
64.922513
 20
208.570611
 30
0.0
 11
64.985013
 21
208.474867
 31
0.0
  0
LINE
  5
274
  8
0
  6
CONTINUOUS
 62
     7
 10
65.110013
 20
208.570611
 30
0.0
 11
65.047513
 21
208.666356
 31
0.0
  0
LINE
  5
275
  8
0
  6
CONTINUOUS
 62
     7
 10
65.641263
 20
208.028058
 30
0.0
 11
65.578763
 21
208.123803
 31
0.0
  0
LINE
  5
276
  8
0
  6
CONTINUOUS
 62
     7
 10
66.172513
 20
208.570611
 30
0.0
 11
66.235013
 21
208.474867
 31
0.0
  0
LINE
  5
277
  8
0
  6
CONTINUOUS
 62
     7
 10
70.578763
 20
208.123803
 30
0.0
 11
70.641263
 21
207.996143
 31
0.0
  0
LINE
  5
278
  8
0
  6
CONTINUOUS
 62
     7
 10
72.078763
 20
207.964228
 30
0.0
 11
72.110013
 21
207.900399
 31
0.0
  0
LINE
  5
279
  8
0
  6
CONTINUOUS
 62
     7
 10
72.735013
 20
208.474867
 30
0.0
 11
72.766263
 21
208.379122
 31
0.0
  0
LINE
  5
27A
  8
0
  6
CONTINUOUS
 62
     7
 10
64.297513
 20
207.900399
 30
0.0
 11
64.360013
 21
207.836569
 31
0.0
  0
LINE
  5
27B
  8
0
  6
CONTINUOUS
 62
     7
 10
64.485013
 20
207.932313
 30
0.0
 11
64.422513
 21
207.996143
 31
0.0
  0
LINE
  5
27C
  8
0
  6
CONTINUOUS
 62
     7
 10
64.860013
 20
208.634441
 30
0.0
 11
64.922513
 21
208.570611
 31
0.0
  0
LINE
  5
27D
  8
0
  6
CONTINUOUS
 62
     7
 10
65.610013
 20
207.900399
 30
0.0
 11
65.672513
 21
207.836569
 31
0.0
  0
LINE
  5
27E
  8
0
  6
CONTINUOUS
 62
     7
 10
65.047513
 20
208.666356
 30
0.0
 11
64.985013
 21
208.730186
 31
0.0
  0
LINE
  5
27F
  8
0
  6
CONTINUOUS
 62
     7
 10
70.828763
 20
208.059973
 30
0.0
 11
70.766263
 21
208.155718
 31
0.0
  0
LINE
  5
280
  8
0
  6
CONTINUOUS
 62
     7
 10
72.141263
 20
208.028058
 30
0.0
 11
72.078763
 21
208.123803
 31
0.0
  0
LINE
  5
281
  8
0
  6
CONTINUOUS
 62
     7
 10
72.672513
 20
208.570611
 30
0.0
 11
72.735013
 21
208.474867
 31
0.0
  0
LINE
  5
282
  8
0
  6
CONTINUOUS
 62
     7
 10
72.891263
 20
208.538696
 30
0.0
 11
72.860013
 21
208.602526
 31
0.0
  0
LINE
  5
283
  8
0
  6
CONTINUOUS
 62
     7
 10
66.360013
 20
208.602526
 30
0.0
 11
66.266263
 21
208.698271
 31
0.0
  0
LINE
  5
284
  8
0
  6
CONTINUOUS
 62
     7
 10
68.172513
 20
208.570611
 30
0.0
 11
68.203763
 21
208.538696
 31
0.0
  0
LINE
  5
285
  8
0
  6
CONTINUOUS
 62
     7
 10
70.641263
 20
207.996143
 30
0.0
 11
70.766263
 21
207.868484
 31
0.0
  0
LINE
  5
286
  8
05_CURVES
  6
CONTINUOUS
 62
     7
 10
94.235013
 20
232.272739
 30
0.0
 11
94.235013
 21
207.272739
 31
0.0
  0
LINE
  5
287
  8
0
  6
CONTINUOUS
 62
     7
 10
65.735013
 20
207.964228
 30
0.0
 11
65.641263
 21
208.028058
 31
0.0
  0
LINE
  5
288
  8
0
  6
CONTINUOUS
 62
     7
 10
66.266263
 20
208.698271
 30
0.0
 11
66.172513
 21
208.762101
 31
0.0
  0
LINE
  5
289
  8
0
  6
CONTINUOUS
 62
     7
 10
68.797513
 20
208.570611
 30
0.0
 11
68.485013
 21
208.794016
 31
0.0
  0
LINE
  5
28A
  8
0
  6
CONTINUOUS
 62
     7
 10
72.110013
 20
207.900399
 30
0.0
 11
72.172513
 21
207.836569
 31
0.0
  0
LINE
  5
28B
  8
0
  6
CONTINUOUS
 62
     7
 10
72.860013
 20
208.602526
 30
0.0
 11
72.766263
 21
208.698271
 31
0.0
  0
LINE
  5
28C
  8
0
  6
CONTINUOUS
 62
     7
 10
64.360013
 20
207.836569
 30
0.0
 11
64.422513
 21
207.804654
 31
0.0
  0
LINE
  5
28D
  8
0
  6
CONTINUOUS
 62
     7
 10
65.672513
 20
207.836569
 30
0.0
 11
65.735013
 21
207.804654
 31
0.0
  0
LINE
  5
28E
  8
0
  6
CONTINUOUS
 62
     7
 10
64.985013
 20
208.730186
 30
0.0
 11
64.922513
 21
208.762101
 31
0.0
  0
LINE
  5
28F
  8
0
  6
CONTINUOUS
 62
     7
 10
66.047513
 20
208.634441
 30
0.0
 11
66.172513
 21
208.570611
 31
0.0
  0
LINE
  5
290
  8
0
  6
CONTINUOUS
 62
     7
 10
68.485013
 20
208.730186
 30
0.0
 11
68.766263
 21
208.538696
 31
0.0
  0
LINE
  5
291
  8
0
  6
CONTINUOUS
 62
     7
 10
70.922513
 20
207.996143
 30
0.0
 11
70.828763
 21
208.059973
 31
0.0
  0
LINE
  5
292
  8
0
  6
CONTINUOUS
 62
     7
 10
72.235013
 20
207.964228
 30
0.0
 11
72.141263
 21
208.028058
 31
0.0
  0
LINE
  5
293
  8
0
  6
CONTINUOUS
 62
     7
 10
72.766263
 20
208.698271
 30
0.0
 11
72.672513
 21
208.762101
 31
0.0
  0
LINE
  5
294
  8
0
  6
CONTINUOUS
 62
     7
 10
70.766263
 20
207.868484
 30
0.0
 11
70.891263
 21
207.804654
 31
0.0
  0
LINE
  5
295
  8
0
  6
CONTINUOUS
 62
     7
 10
72.172513
 20
207.836569
 30
0.0
 11
72.235013
 21
207.804654
 31
0.0
  0
LINE
  5
296
  8
0
  6
CONTINUOUS
 62
     7
 10
72.547513
 20
208.634441
 30
0.0
 11
72.672513
 21
208.570611
 31
0.0
  0
LINE
  5
297
  8
0
  6
CONTINUOUS
 62
     7
 10
70.891263
 20
207.804654
 30
0.0
 11
71.047513
 21
207.772739
 31
0.0
  0
LINE
  5
298
  8
0
  6
CONTINUOUS
 62
     7
 10
64.422513
 20
207.804654
 30
0.0
 11
64.547513
 21
207.772739
 31
0.0
  0
LINE
  5
299
  8
0
  6
CONTINUOUS
 62
     7
 10
64.610013
 20
207.900399
 30
0.0
 11
64.485013
 21
207.932313
 31
0.0
  0
LINE
  5
29A
  8
0
  6
CONTINUOUS
 62
     7
 10
65.735013
 20
207.804654
 30
0.0
 11
65.860013
 21
207.772739
 31
0.0
  0
LINE
  5
29B
  8
0
  6
CONTINUOUS
 62
     7
 10
65.860013
 20
207.932313
 30
0.0
 11
65.735013
 21
207.964228
 31
0.0
  0
LINE
  5
29C
  8
0
  6
CONTINUOUS
 62
     7
 10
64.735013
 20
208.666356
 30
0.0
 11
64.860013
 21
208.634441
 31
0.0
  0
LINE
  5
29D
  8
0
  6
CONTINUOUS
 62
     7
 10
64.922513
 20
208.762101
 30
0.0
 11
64.797513
 21
208.794016
 31
0.0
  0
LINE
  5
29E
  8
0
  6
CONTINUOUS
 62
     7
 10
66.172513
 20
208.762101
 30
0.0
 11
66.047513
 21
208.794016
 31
0.0
  0
LINE
  5
29F
  8
0
  6
CONTINUOUS
 62
     7
 10
71.047513
 20
207.964228
 30
0.0
 11
70.922513
 21
207.996143
 31
0.0
  0
LINE
  5
2A0
  8
0
  6
CONTINUOUS
 62
     7
 10
72.235013
 20
207.804654
 30
0.0
 11
72.360013
 21
207.772739
 31
0.0
  0
LINE
  5
2A1
  8
0
  6
CONTINUOUS
 62
     7
 10
72.360013
 20
207.932313
 30
0.0
 11
72.235013
 21
207.964228
 31
0.0
  0
LINE
  5
2A2
  8
0
  6
CONTINUOUS
 62
     7
 10
72.672513
 20
208.762101
 30
0.0
 11
72.547513
 21
208.794016
 31
0.0
  0
LINE
  5
2A3
  8
0
  6
CONTINUOUS
 62
     7
 10
65.422513
 20
207.262101
 30
0.0
 11
65.578763
 21
207.262101
 31
0.0
  0
LINE
  5
2A4
  8
0
  6
CONTINUOUS
 62
     7
 10
71.922513
 20
207.262101
 30
0.0
 11
72.078763
 21
207.262101
 31
0.0
  0
LINE
  5
2A5
  8
05_CURVES
  6
CONTINUOUS
 62
     7
 10
94.235013
 20
207.272739
 30
0.0
 11
81.235013
 21
207.272739
 31
0.0
  0
LINE
  5
2A6
  8
0
  6
CONTINUOUS
 62
     7
 10
63.235013
 20
207.772739
 30
0.0
 11
63.422513
 21
207.772739
 31
0.0
  0
LINE
  5
2A7
  8
0
  6
CONTINUOUS
 62
     7
 10
64.547513
 20
207.772739
 30
0.0
 11
64.797513
 21
207.772739
 31
0.0
  0
LINE
  5
2A8
  8
0
  6
CONTINUOUS
 62
     7
 10
65.860013
 20
207.772739
 30
0.0
 11
66.047513
 21
207.772739
 31
0.0
  0
LINE
  5
2A9
  8
0
  6
CONTINUOUS
 62
     7
 10
71.047513
 20
207.772739
 30
0.0
 11
71.172513
 21
207.772739
 31
0.0
  0
LINE
  5
2AA
  8
0
  6
CONTINUOUS
 62
     7
 10
72.360013
 20
207.772739
 30
0.0
 11
72.547513
 21
207.772739
 31
0.0
  0
LINE
  5
2AB
  8
0
  6
CONTINUOUS
 62
     7
 10
64.735013
 20
207.900399
 30
0.0
 11
64.610013
 21
207.900399
 31
0.0
  0
LINE
  5
2AC
  8
0
  6
CONTINUOUS
 62
     7
 10
72.485013
 20
207.932313
 30
0.0
 11
72.360013
 21
207.932313
 31
0.0
  0
LINE
  5
2AD
  8
0
  6
CONTINUOUS
 62
     7
 10
65.985013
 20
207.932313
 30
0.0
 11
65.860013
 21
207.932313
 31
0.0
  0
LINE
  5
2AE
  8
0
  6
CONTINUOUS
 62
     7
 10
71.172513
 20
207.964228
 30
0.0
 11
71.047513
 21
207.964228
 31
0.0
  0
LINE
  5
2AF
  8
0
  6
CONTINUOUS
 62
     7
 10
65.860013
 20
208.634441
 30
0.0
 11
66.047513
 21
208.634441
 31
0.0
  0
LINE
  5
2B0
  8
0
  6
CONTINUOUS
 62
     7
 10
72.360013
 20
208.634441
 30
0.0
 11
72.547513
 21
208.634441
 31
0.0
  0
LINE
  5
2B1
  8
0
  6
CONTINUOUS
 62
     7
 10
64.610013
 20
208.666356
 30
0.0
 11
64.735013
 21
208.666356
 31
0.0
  0
LINE
  5
2B2
  8
0
  6
CONTINUOUS
 62
     7
 10
72.547513
 20
207.772739
 30
0.0
 11
72.672513
 21
207.804654
 31
0.0
  0
LINE
  5
2B3
  8
0
  6
CONTINUOUS
 62
     7
 10
72.610013
 20
207.964228
 30
0.0
 11
72.485013
 21
207.932313
 31
0.0
  0
LINE
  5
2B4
  8
0
  6
CONTINUOUS
 62
     7
 10
71.297513
 20
207.996143
 30
0.0
 11
71.172513
 21
207.964228
 31
0.0
  0
LINE
  5
2B5
  8
0
  6
CONTINUOUS
 62
     7
 10
72.235013
 20
208.602526
 30
0.0
 11
72.360013
 21
208.634441
 31
0.0
  0
LINE
  5
2B6
  8
0
  6
CONTINUOUS
 62
     7
 10
72.360013
 20
208.794016
 30
0.0
 11
72.235013
 21
208.762101
 31
0.0
  0
LINE
  5
2B7
  8
0
  6
CONTINUOUS
 62
     7
 10
66.047513
 20
207.772739
 30
0.0
 11
66.172513
 21
207.804654
 31
0.0
  0
LINE
  5
2B8
  8
0
  6
CONTINUOUS
 62
     7
 10
66.110013
 20
207.964228
 30
0.0
 11
65.985013
 21
207.932313
 31
0.0
  0
LINE
  5
2B9
  8
0
  6
CONTINUOUS
 62
     7
 10
71.172513
 20
207.772739
 30
0.0
 11
71.328763
 21
207.804654
 31
0.0
  0
LINE
  5
2BA
  8
0
  6
CONTINUOUS
 62
     7
 10
72.547513
 20
208.794016
 30
0.0
 11
72.360013
 21
208.794016
 31
0.0
  0
LINE
  5
2BB
  8
0
  6
CONTINUOUS
 62
     7
 10
72.078763
 20
208.794016
 30
0.0
 11
71.922513
 21
208.794016
 31
0.0
  0
LINE
  5
2BC
  8
0
  6
CONTINUOUS
 62
     7
 10
66.047513
 20
208.794016
 30
0.0
 11
65.860013
 21
208.794016
 31
0.0
  0
LINE
  5
2BD
  8
0
  6
CONTINUOUS
 62
     7
 10
65.578763
 20
208.794016
 30
0.0
 11
65.422513
 21
208.794016
 31
0.0
  0
LINE
  5
2BE
  8
0
  6
CONTINUOUS
 62
     7
 10
64.797513
 20
208.794016
 30
0.0
 11
64.547513
 21
208.794016
 31
0.0
  0
LINE
  5
2BF
  8
0
  6
CONTINUOUS
 62
     7
 10
62.735013
 20
209.113165
 30
0.0
 11
63.235013
 21
209.113165
 31
0.0
  0
LINE
  5
2C0
  8
0
  6
CONTINUOUS
 62
     7
 10
63.422513
 20
209.113165
 30
0.0
 11
63.922513
 21
209.113165
 31
0.0
  0
LINE
  5
2C1
  8
0
  6
CONTINUOUS
 62
     7
 10
71.672513
 20
209.272739
 30
0.0
 11
71.485013
 21
209.272739
 31
0.0
  0
LINE
  5
2C2
  8
0
  6
CONTINUOUS
 62
     7
 10
70.735013
 20
209.272739
 30
0.0
 11
70.547513
 21
209.272739
 31
0.0
  0
LINE
  5
2C3
  8
0
  6
CONTINUOUS
 62
     7
 10
63.922513
 20
209.272739
 30
0.0
 11
62.735013
 21
209.272739
 31
0.0
  0
LINE
  5
2C4
  8
0
  6
CONTINUOUS
 62
     7
 10
64.797513
 20
207.772739
 30
0.0
 11
64.922513
 21
207.804654
 31
0.0
  0
LINE
  5
2C5
  8
0
  6
CONTINUOUS
 62
     7
 10
64.860013
 20
207.932313
 30
0.0
 11
64.735013
 21
207.900399
 31
0.0
  0
LINE
  5
2C6
  8
0
  6
CONTINUOUS
 62
     7
 10
65.735013
 20
208.602526
 30
0.0
 11
65.860013
 21
208.634441
 31
0.0
  0
LINE
  5
2C7
  8
0
  6
CONTINUOUS
 62
     7
 10
65.860013
 20
208.794016
 30
0.0
 11
65.735013
 21
208.762101
 31
0.0
  0
LINE
  5
2C8
  8
0
  6
CONTINUOUS
 62
     7
 10
64.485013
 20
208.634441
 30
0.0
 11
64.610013
 21
208.666356
 31
0.0
  0
LINE
  5
2C9
  8
0
  6
CONTINUOUS
 62
     7
 10
64.547513
 20
208.794016
 30
0.0
 11
64.422513
 21
208.762101
 31
0.0
  0
LINE
  5
2CA
  8
05_CURVES
  6
CONTINUOUS
 62
     7
 10
119.135013
 20
214.572739
 30
0.0
 11
56.335013
 21
214.572739
 31
0.0
  0
LINE
  5
2CB
  8
0
  6
CONTINUOUS
 62
     7
 10
119.135013
 20
215.572739
 30
0.0
 11
56.335013
 21
215.572739
 31
0.0
  0
LINE
  5
2CC
  8
05_CURVES
  6
CONTINUOUS
 62
     7
 10
120.535013
 20
140.372739
 30
0.0
 11
120.535013
 21
213.172739
 31
0.0
  0
LINE
  5
2CD
  8
0
  6
CONTINUOUS
 62
     7
 10
121.535013
 20
140.372739
 30
0.0
 11
121.535013
 21
213.172739
 31
0.0
  0
LINE
  5
2CE
  8
05_CURVES
  6
CONTINUOUS
 62
     7
 10
81.235013
 20
232.272739
 30
0.0
 11
94.235013
 21
232.272739
 31
0.0
  0
CIRCLE
  5
2CF
  8
05_CURVES
  6
CONTINUOUS
 62
     7
 10
56.335013
 20
140.372739
 30
0.0
 40
3.0
  0
ARC
  5
2D0
  8
0
  6
CONTINUOUS
 62
     7
 10
56.335013
 20
140.372739
 30
0.0
 40
2.4
 50
180.0
 51
270.0
  0
ARC
  5
2D1
  8
05_CURVES
  6
CONTINUOUS
 62
     7
 10
56.335013
 20
140.372739
 30
0.0
 40
1.4
 50
180.0
 51
270.0
  0
CIRCLE
  5
2D2
  8
0
  6
CONTINUOUS
 62
     7
 10
56.335013
 20
140.372739
 30
0.0
 40
1.2
  0
CIRCLE
  5
2D3
  8
0
  6
CONTINUOUS
 62
     7
 10
64.875013
 20
154.972739
 30
0.0
 40
0.4
  0
CIRCLE
  5
2D4
  8
0
  6
CONTINUOUS
 62
     7
 10
62.335013
 20
154.972739
 30
0.0
 40
0.4
  0
CIRCLE
  5
2D5
  8
0
  6
CONTINUOUS
 62
     7
 10
68.685013
 20
162.722739
 30
0.0
 40
1.9939
  0
CIRCLE
  5
2D6
  8
0
  6
CONTINUOUS
 62
     7
 10
63.605013
 20
162.722739
 30
0.0
 40
0.8509
  0
CIRCLE
  5
2D7
  8
0
  6
CONTINUOUS
 62
     7
 10
64.875013
 20
165.262739
 30
0.0
 40
0.7493
  0
CIRCLE
  5
2D8
  8
0
  6
CONTINUOUS
 62
     7
 10
64.875013
 20
174.022739
 30
0.0
 40
0.4
  0
CIRCLE
  5
2D9
  8
0
  6
CONTINUOUS
 62
     7
 10
62.335013
 20
174.022739
 30
0.0
 40
0.4
  0
CIRCLE
  5
2DA
  8
0
  6
CONTINUOUS
 62
     7
 10
78.845013
 20
157.682739
 30
0.0
 40
0.5
  0
CIRCLE
  5
2DB
  8
0
  6
CONTINUOUS
 62
     7
 10
78.845013
 20
155.142739
 30
0.0
 40
0.5
  0
CIRCLE
  5
2DC
  8
0
  6
CONTINUOUS
 62
     7
 10
83.925013
 20
154.972739
 30
0.0
 40
0.4
  0
CIRCLE
  5
2DD
  8
0
  6
CONTINUOUS
 62
     7
 10
81.385013
 20
154.972739
 30
0.0
 40
0.4
  0
CIRCLE
  5
2DE
  8
0
  6
CONTINUOUS
 62
     7
 10
73.765013
 20
162.722739
 30
0.0
 40
0.8509
  0
CIRCLE
  5
2DF
  8
0
  6
CONTINUOUS
 62
     7
 10
71.225013
 20
167.802739
 30
0.0
 40
0.7493
  0
CIRCLE
  5
2E0
  8
0
  6
CONTINUOUS
 62
     7
 10
82.655013
 20
162.722739
 30
0.0
 40
0.8509
  0
CIRCLE
  5
2E1
  8
0
  6
CONTINUOUS
 62
     7
 10
83.925013
 20
165.262739
 30
0.0
 40
0.7493
  0
CIRCLE
  5
2E2
  8
0
  6
CONTINUOUS
 62
     7
 10
78.845013
 20
165.302739
 30
0.0
 40
0.5
  0
CIRCLE
  5
2E3
  8
0
  6
CONTINUOUS
 62
     7
 10
78.845013
 20
162.762739
 30
0.0
 40
0.5
  0
CIRCLE
  5
2E4
  8
0
  6
CONTINUOUS
 62
     7
 10
78.845013
 20
160.222739
 30
0.0
 40
0.5
  0
CIRCLE
  5
2E5
  8
0
  6
CONTINUOUS
 62
     7
 10
78.845013
 20
175.462739
 30
0.0
 40
0.5
  0
CIRCLE
  5
2E6
  8
0
  6
CONTINUOUS
 62
     7
 10
78.845013
 20
172.922739
 30
0.0
 40
0.5
  0
CIRCLE
  5
2E7
  8
0
  6
CONTINUOUS
 62
     7
 10
78.845013
 20
170.382739
 30
0.0
 40
0.5
  0
CIRCLE
  5
2E8
  8
0
  6
CONTINUOUS
 62
     7
 10
78.845013
 20
167.842739
 30
0.0
 40
0.5
  0
CIRCLE
  5
2E9
  8
0
  6
CONTINUOUS
 62
     7
 10
83.925013
 20
174.022739
 30
0.0
 40
0.4
  0
CIRCLE
  5
2EA
  8
0
  6
CONTINUOUS
 62
     7
 10
81.385013
 20
174.022739
 30
0.0
 40
0.4
  0
CIRCLE
  5
2EB
  8
0
  6
CONTINUOUS
 62
     7
 10
68.685013
 20
181.772739
 30
0.0
 40
1.9939
  0
CIRCLE
  5
2EC
  8
0
  6
CONTINUOUS
 62
     7
 10
63.605013
 20
181.772739
 30
0.0
 40
0.8509
  0
CIRCLE
  5
2ED
  8
0
  6
CONTINUOUS
 62
     7
 10
64.875013
 20
184.312739
 30
0.0
 40
0.7493
  0
CIRCLE
  5
2EE
  8
0
  6
CONTINUOUS
 62
     7
 10
64.875013
 20
193.072739
 30
0.0
 40
0.4
  0
CIRCLE
  5
2EF
  8
0
  6
CONTINUOUS
 62
     7
 10
62.335013
 20
193.072739
 30
0.0
 40
0.4
  0
CIRCLE
  5
2F0
  8
05_CURVES
  6
CONTINUOUS
 62
     7
 10
56.335013
 20
213.172739
 30
0.0
 40
3.0
  0
ARC
  5
2F1
  8
0
  6
CONTINUOUS
 62
     7
 10
56.335013
 20
213.172739
 30
0.0
 40
2.4
 50
90.0
 51
180.0
  0
CIRCLE
  5
2F2
  8
0
  6
CONTINUOUS
 62
     7
 10
68.685013
 20
200.822739
 30
0.0
 40
1.9939
  0
ARC
  5
2F3
  8
05_CURVES
  6
CONTINUOUS
 62
     7
 10
56.335013
 20
213.172739
 30
0.0
 40
1.4
 50
90.0
 51
180.0
  0
CIRCLE
  5
2F4
  8
0
  6
CONTINUOUS
 62
     7
 10
56.335013
 20
213.172739
 30
0.0
 40
1.2
  0
CIRCLE
  5
2F5
  8
0
  6
CONTINUOUS
 62
     7
 10
63.605013
 20
200.822739
 30
0.0
 40
0.8509
  0
CIRCLE
  5
2F6
  8
0
  6
CONTINUOUS
 62
     7
 10
64.875013
 20
203.362739
 30
0.0
 40
0.7493
  0
CIRCLE
  5
2F7
  8
0
  6
CONTINUOUS
 62
     7
 10
73.765013
 20
181.772739
 30
0.0
 40
0.8509
  0
CIRCLE
  5
2F8
  8
0
  6
CONTINUOUS
 62
     7
 10
71.225013
 20
186.852739
 30
0.0
 40
0.7493
  0
CIRCLE
  5
2F9
  8
0
  6
CONTINUOUS
 62
     7
 10
82.655013
 20
181.772739
 30
0.0
 40
0.8509
  0
CIRCLE
  5
2FA
  8
0
  6
CONTINUOUS
 62
     7
 10
83.925013
 20
184.312739
 30
0.0
 40
0.7493
  0
CIRCLE
  5
2FB
  8
0
  6
CONTINUOUS
 62
     7
 10
78.845013
 20
183.082739
 30
0.0
 40
0.5
  0
CIRCLE
  5
2FC
  8
0
  6
CONTINUOUS
 62
     7
 10
78.845013
 20
180.542739
 30
0.0
 40
0.5
  0
CIRCLE
  5
2FD
  8
0
  6
CONTINUOUS
 62
     7
 10
78.845013
 20
178.002739
 30
0.0
 40
0.5
  0
CIRCLE
  5
2FE
  8
0
  6
CONTINUOUS
 62
     7
 10
78.845013
 20
193.242739
 30
0.0
 40
0.5
  0
CIRCLE
  5
2FF
  8
0
  6
CONTINUOUS
 62
     7
 10
78.845013
 20
190.702739
 30
0.0
 40
0.5
  0
CIRCLE
  5
300
  8
0
  6
CONTINUOUS
 62
     7
 10
78.845013
 20
188.162739
 30
0.0
 40
0.5
  0
CIRCLE
  5
301
  8
0
  6
CONTINUOUS
 62
     7
 10
78.845013
 20
185.622739
 30
0.0
 40
0.5
  0
CIRCLE
  5
302
  8
0
  6
CONTINUOUS
 62
     7
 10
83.925013
 20
193.072739
 30
0.0
 40
0.4
  0
CIRCLE
  5
303
  8
0
  6
CONTINUOUS
 62
     7
 10
81.385013
 20
193.072739
 30
0.0
 40
0.4
  0
CIRCLE
  5
304
  8
0
  6
CONTINUOUS
 62
     7
 10
82.655013
 20
200.822739
 30
0.0
 40
0.8509
  0
CIRCLE
  5
305
  8
0
  6
CONTINUOUS
 62
     7
 10
73.765013
 20
200.822739
 30
0.0
 40
0.8509
  0
CIRCLE
  5
306
  8
0
  6
CONTINUOUS
 62
     7
 10
83.925013
 20
203.362739
 30
0.0
 40
0.7493
  0
CIRCLE
  5
307
  8
0
  6
CONTINUOUS
 62
     7
 10
71.225013
 20
205.902739
 30
0.0
 40
0.7493
  0
CIRCLE
  5
308
  8
0
  6
CONTINUOUS
 62
     7
 10
78.845013
 20
203.402739
 30
0.0
 40
0.5
  0
CIRCLE
  5
309
  8
0
  6
CONTINUOUS
 62
     7
 10
78.845013
 20
200.862739
 30
0.0
 40
0.5
  0
CIRCLE
  5
30A
  8
0
  6
CONTINUOUS
 62
     7
 10
78.845013
 20
198.322739
 30
0.0
 40
0.5
  0
CIRCLE
  5
30B
  8
0
  6
CONTINUOUS
 62
     7
 10
78.845013
 20
195.782739
 30
0.0
 40
0.5
  0
CIRCLE
  5
30C
  8
0
  6
CONTINUOUS
 62
     7
 10
96.625013
 20
157.682739
 30
0.0
 40
0.5
  0
CIRCLE
  5
30D
  8
0
  6
CONTINUOUS
 62
     7
 10
96.625013
 20
155.142739
 30
0.0
 40
0.5
  0
CIRCLE
  5
30E
  8
0
  6
CONTINUOUS
 62
     7
 10
102.975013
 20
154.972739
 30
0.0
 40
0.4
  0
CIRCLE
  5
30F
  8
0
  6
CONTINUOUS
 62
     7
 10
100.435013
 20
154.972739
 30
0.0
 40
0.4
  0
CIRCLE
  5
310
  8
0
  6
CONTINUOUS
 62
     7
 10
87.735013
 20
162.722739
 30
0.0
 40
1.9939
  0
CIRCLE
  5
311
  8
0
  6
CONTINUOUS
 62
     7
 10
92.815013
 20
162.722739
 30
0.0
 40
0.8509
  0
CIRCLE
  5
312
  8
0
  6
CONTINUOUS
 62
     7
 10
90.275013
 20
167.802739
 30
0.0
 40
0.7493
  0
CIRCLE
  5
313
  8
0
  6
CONTINUOUS
 62
     7
 10
101.705013
 20
162.722739
 30
0.0
 40
0.8509
  0
CIRCLE
  5
314
  8
0
  6
CONTINUOUS
 62
     7
 10
102.975013
 20
165.262739
 30
0.0
 40
0.7493
  0
CIRCLE
  5
315
  8
0
  6
CONTINUOUS
 62
     7
 10
96.625013
 20
165.302739
 30
0.0
 40
0.5
  0
CIRCLE
  5
316
  8
0
  6
CONTINUOUS
 62
     7
 10
96.625013
 20
162.762739
 30
0.0
 40
0.5
  0
CIRCLE
  5
317
  8
0
  6
CONTINUOUS
 62
     7
 10
96.625013
 20
160.222739
 30
0.0
 40
0.5
  0
CIRCLE
  5
318
  8
0
  6
CONTINUOUS
 62
     7
 10
96.625013
 20
175.462739
 30
0.0
 40
0.5
  0
CIRCLE
  5
319
  8
0
  6
CONTINUOUS
 62
     7
 10
96.625013
 20
172.922739
 30
0.0
 40
0.5
  0
CIRCLE
  5
31A
  8
0
  6
CONTINUOUS
 62
     7
 10
96.625013
 20
170.382739
 30
0.0
 40
0.5
  0
CIRCLE
  5
31B
  8
0
  6
CONTINUOUS
 62
     7
 10
96.625013
 20
167.842739
 30
0.0
 40
0.5
  0
CIRCLE
  5
31C
  8
0
  6
CONTINUOUS
 62
     7
 10
102.975013
 20
174.022739
 30
0.0
 40
0.4
  0
CIRCLE
  5
31D
  8
0
  6
CONTINUOUS
 62
     7
 10
100.435013
 20
174.022739
 30
0.0
 40
0.4
  0
CIRCLE
  5
31E
  8
05_CURVES
  6
CONTINUOUS
 62
     7
 10
119.135013
 20
140.372739
 30
0.0
 40
3.0
  0
ARC
  5
31F
  8
0
  6
CONTINUOUS
 62
     7
 10
119.135013
 20
140.372739
 30
0.0
 40
2.4
 50
270.0
 51
360.0
  0
ARC
  5
320
  8
05_CURVES
  6
CONTINUOUS
 62
     7
 10
119.135013
 20
140.372739
 30
0.0
 40
1.4
 50
270.0
 51
360.0
  0
CIRCLE
  5
321
  8
0
  6
CONTINUOUS
 62
     7
 10
119.135013
 20
140.372739
 30
0.0
 40
1.2
  0
CIRCLE
  5
322
  8
0
  6
CONTINUOUS
 62
     7
 10
106.785013
 20
162.722739
 30
0.0
 40
1.9939
  0
CIRCLE
  5
323
  8
0
  6
CONTINUOUS
 62
     7
 10
111.865013
 20
162.722739
 30
0.0
 40
0.8509
  0
CIRCLE
  5
324
  8
0
  6
CONTINUOUS
 62
     7
 10
109.325013
 20
167.802739
 30
0.0
 40
0.7493
  0
CIRCLE
  5
325
  8
0
  6
CONTINUOUS
 62
     7
 10
87.735013
 20
181.772739
 30
0.0
 40
1.9939
  0
CIRCLE
  5
326
  8
0
  6
CONTINUOUS
 62
     7
 10
92.815013
 20
181.772739
 30
0.0
 40
0.8509
  0
CIRCLE
  5
327
  8
0
  6
CONTINUOUS
 62
     7
 10
90.275013
 20
186.852739
 30
0.0
 40
0.7493
  0
CIRCLE
  5
328
  8
0
  6
CONTINUOUS
 62
     7
 10
101.705013
 20
181.772739
 30
0.0
 40
0.8509
  0
CIRCLE
  5
329
  8
0
  6
CONTINUOUS
 62
     7
 10
102.975013
 20
184.312739
 30
0.0
 40
0.7493
  0
CIRCLE
  5
32A
  8
0
  6
CONTINUOUS
 62
     7
 10
96.625013
 20
183.082739
 30
0.0
 40
0.5
  0
CIRCLE
  5
32B
  8
0
  6
CONTINUOUS
 62
     7
 10
96.625013
 20
180.542739
 30
0.0
 40
0.5
  0
CIRCLE
  5
32C
  8
0
  6
CONTINUOUS
 62
     7
 10
96.625013
 20
178.002739
 30
0.0
 40
0.5
  0
CIRCLE
  5
32D
  8
0
  6
CONTINUOUS
 62
     7
 10
96.625013
 20
193.242739
 30
0.0
 40
0.5
  0
CIRCLE
  5
32E
  8
0
  6
CONTINUOUS
 62
     7
 10
96.625013
 20
190.702739
 30
0.0
 40
0.5
  0
CIRCLE
  5
32F
  8
0
  6
CONTINUOUS
 62
     7
 10
96.625013
 20
188.162739
 30
0.0
 40
0.5
  0
CIRCLE
  5
330
  8
0
  6
CONTINUOUS
 62
     7
 10
96.625013
 20
185.622739
 30
0.0
 40
0.5
  0
CIRCLE
  5
331
  8
0
  6
CONTINUOUS
 62
     7
 10
102.975013
 20
193.072739
 30
0.0
 40
0.4
  0
CIRCLE
  5
332
  8
0
  6
CONTINUOUS
 62
     7
 10
100.435013
 20
193.072739
 30
0.0
 40
0.4
  0
CIRCLE
  5
333
  8
0
  6
CONTINUOUS
 62
     7
 10
87.735013
 20
200.822739
 30
0.0
 40
1.9939
  0
CIRCLE
  5
334
  8
0
  6
CONTINUOUS
 62
     7
 10
101.705013
 20
200.822739
 30
0.0
 40
0.8509
  0
CIRCLE
  5
335
  8
0
  6
CONTINUOUS
 62
     7
 10
92.815013
 20
200.822739
 30
0.0
 40
0.8509
  0
CIRCLE
  5
336
  8
0
  6
CONTINUOUS
 62
     7
 10
102.975013
 20
203.362739
 30
0.0
 40
0.7493
  0
CIRCLE
  5
337
  8
0
  6
CONTINUOUS
 62
     7
 10
90.275013
 20
205.902739
 30
0.0
 40
0.7493
  0
CIRCLE
  5
338
  8
0
  6
CONTINUOUS
 62
     7
 10
96.625013
 20
203.402739
 30
0.0
 40
0.5
  0
CIRCLE
  5
339
  8
0
  6
CONTINUOUS
 62
     7
 10
96.625013
 20
200.862739
 30
0.0
 40
0.5
  0
CIRCLE
  5
33A
  8
0
  6
CONTINUOUS
 62
     7
 10
96.625013
 20
198.322739
 30
0.0
 40
0.5
  0
CIRCLE
  5
33B
  8
0
  6
CONTINUOUS
 62
     7
 10
96.625013
 20
195.782739
 30
0.0
 40
0.5
  0
CIRCLE
  5
33C
  8
0
  6
CONTINUOUS
 62
     7
 10
106.785013
 20
181.772739
 30
0.0
 40
1.9939
  0
CIRCLE
  5
33D
  8
0
  6
CONTINUOUS
 62
     7
 10
111.865013
 20
181.772739
 30
0.0
 40
0.8509
  0
CIRCLE
  5
33E
  8
0
  6
CONTINUOUS
 62
     7
 10
109.325013
 20
186.852739
 30
0.0
 40
0.7493
  0
CIRCLE
  5
33F
  8
05_CURVES
  6
CONTINUOUS
 62
     7
 10
119.135013
 20
213.172739
 30
0.0
 40
3.0
  0
ARC
  5
340
  8
0
  6
CONTINUOUS
 62
     7
 10
119.135013
 20
213.172739
 30
0.0
 40
2.4
 50
0.0
 51
90.0
  0
CIRCLE
  5
341
  8
0
  6
CONTINUOUS
 62
     7
 10
106.785013
 20
200.822739
 30
0.0
 40
1.9939
  0
ARC
  5
342
  8
05_CURVES
  6
CONTINUOUS
 62
     7
 10
119.135013
 20
213.172739
 30
0.0
 40
1.4
 50
0.0
 51
90.0
  0
CIRCLE
  5
343
  8
0
  6
CONTINUOUS
 62
     7
 10
119.135013
 20
213.172739
 30
0.0
 40
1.2
  0
CIRCLE
  5
344
  8
0
  6
CONTINUOUS
 62
     7
 10
111.865013
 20
200.822739
 30
0.0
 40
0.8509
  0
CIRCLE
  5
345
  8
0
  6
CONTINUOUS
 62
     7
 10
109.325013
 20
205.902739
 30
0.0
 40
0.7493
  0
ENDSEC
  0
EOF
